# xmcd
#
# Track frame offsets:
#	150
#	14441
#	31238
#	47688
#	62702
#	76895
#	96817
#	113500
#	126427
#	144754
#	163733
#	178894
#
# Disc length: 2673 seconds
#
# Revision: 0
# Processed by: cddbd v1.5.2PL0 Copyright (c) Steve Scherf et al.
# Submitted via: audiograbber 1.83.01
#
DISCID=970a6f0c
DTITLE=Rhonda Vincent - Taken
DYEAR=2010
DGENRE=Bluegrass
TTITLE0=The Court Of Love
TTITLE1=Taken
TTITLE2=In The Garden By The Fountain
TTITLE3=Song Of A Whippoorwill
TTITLE4=Back On My Mind
TTITLE5=When The Bloom Is Off The Rose
TTITLE6=Ragin' Live For You Tonight
TTITLE7=Sweet Summertime
TTITLE8=Tonight My Baby's Coming Home
TTITLE9=A Little At A Time
TTITLE10=God Is Watching
TTITLE11=You Must Have A Dream
EXTD=
EXTT0=
EXTT1=
EXTT2=
EXTT3=
EXTT4=
EXTT5=
EXTT6=
EXTT7=
EXTT8=
EXTT9=
EXTT10=
EXTT11=
PLAYORDER=
